%TF.GenerationSoftware,KiCad,Pcbnew,(6.0.11)*%
%TF.CreationDate,2023-05-29T20:04:11-04:00*%
%TF.ProjectId,MacroPad1.1,4d616372-6f50-4616-9431-2e312e6b6963,rev?*%
%TF.SameCoordinates,Original*%
%TF.FileFunction,Copper,L1,Top*%
%TF.FilePolarity,Positive*%
%FSLAX46Y46*%
G04 Gerber Fmt 4.6, Leading zero omitted, Abs format (unit mm)*
G04 Created by KiCad (PCBNEW (6.0.11)) date 2023-05-29 20:04:11*
%MOMM*%
%LPD*%
G01*
G04 APERTURE LIST*
G04 Aperture macros list*
%AMHorizOval*
0 Thick line with rounded ends*
0 $1 width*
0 $2 $3 position (X,Y) of the first rounded end (center of the circle)*
0 $4 $5 position (X,Y) of the second rounded end (center of the circle)*
0 Add line between two ends*
20,1,$1,$2,$3,$4,$5,0*
0 Add two circle primitives to create the rounded ends*
1,1,$1,$2,$3*
1,1,$1,$4,$5*%
G04 Aperture macros list end*
%TA.AperFunction,ComponentPad*%
%ADD10HorizOval,2.250000X0.655001X0.730000X-0.655001X-0.730000X0*%
%TD*%
%TA.AperFunction,ComponentPad*%
%ADD11C,2.250000*%
%TD*%
%TA.AperFunction,ComponentPad*%
%ADD12HorizOval,2.250000X0.020000X0.290000X-0.020000X-0.290000X0*%
%TD*%
%TA.AperFunction,ComponentPad*%
%ADD13O,1.700000X2.700000*%
%TD*%
%TA.AperFunction,ViaPad*%
%ADD14C,0.800000*%
%TD*%
%TA.AperFunction,Conductor*%
%ADD15C,0.400000*%
%TD*%
%TA.AperFunction,Conductor*%
%ADD16C,0.250000*%
%TD*%
G04 APERTURE END LIST*
D10*
%TO.P,MX6,1,COL*%
%TO.N,Col2*%
X135786251Y-99867500D03*
D11*
X136441250Y-99137500D03*
%TO.P,MX6,2,ROW*%
%TO.N,Net-(D6-Pad2)*%
X141481250Y-98057500D03*
D12*
X141461250Y-98347500D03*
%TD*%
D11*
%TO.P,MX3,1,COL*%
%TO.N,Col1*%
X111803250Y-80087500D03*
D10*
X111148251Y-80817500D03*
D12*
%TO.P,MX3,2,ROW*%
%TO.N,Net-(D3-Pad2)*%
X116823250Y-79297500D03*
D11*
X116843250Y-79007500D03*
%TD*%
%TO.P,MX5,1,COL*%
%TO.N,Col2*%
X130853250Y-80087500D03*
D10*
X130198251Y-80817500D03*
D11*
%TO.P,MX5,2,ROW*%
%TO.N,Net-(D5-Pad2)*%
X135893250Y-79007500D03*
D12*
X135873250Y-79297500D03*
%TD*%
D11*
%TO.P,MX4,1,COL*%
%TO.N,Col1*%
X117391250Y-99137500D03*
D10*
X116736251Y-99867500D03*
D11*
%TO.P,MX4,2,ROW*%
%TO.N,Net-(D4-Pad2)*%
X122431250Y-98057500D03*
D12*
X122411250Y-98347500D03*
%TD*%
D10*
%TO.P,MX1,1,COL*%
%TO.N,Col0*%
X92130001Y-80817500D03*
D11*
X92785000Y-80087500D03*
%TO.P,MX1,2,ROW*%
%TO.N,Net-(D1-Pad2)*%
X97825000Y-79007500D03*
D12*
X97805000Y-79297500D03*
%TD*%
D11*
%TO.P,MX2,1,COL*%
%TO.N,Col0*%
X98341250Y-99137500D03*
D10*
X97686251Y-99867500D03*
D11*
%TO.P,MX2,2,ROW*%
%TO.N,Net-(D2-Pad2)*%
X103381250Y-98057500D03*
D12*
X103361250Y-98347500D03*
%TD*%
D13*
%TO.P,USB1,6,SHIELD*%
%TO.N,unconnected-(USB1-Pad6)*%
X108425000Y-75937500D03*
X101125000Y-75937500D03*
X108425000Y-71437500D03*
X101125000Y-71437500D03*
%TD*%
D14*
%TO.N,+5V*%
X76200000Y-108331000D03*
X83185000Y-108839000D03*
X93218000Y-91440000D03*
X83185000Y-111633000D03*
X93853000Y-92964000D03*
X84074000Y-92799500D03*
X88646000Y-108839000D03*
X97536000Y-92710000D03*
X75504000Y-103317000D03*
X94869000Y-91440000D03*
X90805000Y-91440000D03*
X80264000Y-92583000D03*
X77470000Y-92583000D03*
X79502000Y-103251000D03*
%TO.N,GND*%
X85598000Y-87630000D03*
X97536000Y-89535000D03*
X80476349Y-87671651D03*
X96012000Y-88392000D03*
X88392000Y-87630000D03*
X105793303Y-89552587D03*
X92075000Y-88392000D03*
%TO.N,Net-(C7-Pad1)*%
X76708000Y-94742000D03*
X79406500Y-94107000D03*
%TO.N,Row0*%
X103632000Y-93815500D03*
X143129000Y-91186000D03*
X104521000Y-92202000D03*
X94238866Y-99192839D03*
X124206000Y-91186000D03*
%TO.N,Row1*%
X148590000Y-106172000D03*
X93599000Y-101600000D03*
X110490000Y-106172000D03*
X129540000Y-106172000D03*
%TO.N,Col0*%
X94239893Y-100717945D03*
%TO.N,Col1*%
X93593223Y-99955827D03*
X115062000Y-93815500D03*
X109817500Y-93815500D03*
%TO.N,Col2*%
X93599000Y-98425000D03*
X129286000Y-92964000D03*
X133985000Y-92964000D03*
%TO.N,Net-(R1-Pad2)*%
X78232000Y-86360000D03*
X105410000Y-87630000D03*
%TO.N,Net-(R2-Pad2)*%
X105410000Y-88629503D03*
X79063636Y-86914424D03*
%TO.N,Net-(R3-Pad1)*%
X81317500Y-91783500D03*
X77470000Y-90805000D03*
%TD*%
D15*
%TO.N,+5V*%
X79502000Y-111633000D02*
X76200000Y-108331000D01*
X84290500Y-92583000D02*
X85090000Y-92583000D01*
X94107000Y-92710000D02*
X93853000Y-92964000D01*
X84074000Y-92799500D02*
X83857500Y-92583000D01*
X84074000Y-92799500D02*
X84290500Y-92583000D01*
X93218000Y-91440000D02*
X94869000Y-91440000D01*
X79502000Y-103251000D02*
X75570000Y-103251000D01*
X85090000Y-92583000D02*
X89662000Y-92583000D01*
X97536000Y-92710000D02*
X94107000Y-92710000D01*
X80264000Y-92583000D02*
X77470000Y-92583000D01*
X75570000Y-103251000D02*
X75504000Y-103317000D01*
X88646000Y-108839000D02*
X83185000Y-108839000D01*
X83185000Y-111633000D02*
X79502000Y-111633000D01*
X89662000Y-92583000D02*
X90805000Y-91440000D01*
X83857500Y-92583000D02*
X80264000Y-92583000D01*
%TO.N,GND*%
X96012000Y-88392000D02*
X92075000Y-88392000D01*
X92075000Y-88392000D02*
X91313000Y-87630000D01*
X105793303Y-89552587D02*
X105775716Y-89535000D01*
X91313000Y-87630000D02*
X88392000Y-87630000D01*
X88392000Y-87630000D02*
X85598000Y-87630000D01*
X85598000Y-87630000D02*
X80518000Y-87630000D01*
X80518000Y-87630000D02*
X80476349Y-87671651D01*
X105775716Y-89535000D02*
X97536000Y-89535000D01*
D16*
%TO.N,Net-(C7-Pad1)*%
X77343000Y-94107000D02*
X79406500Y-94107000D01*
X76708000Y-94742000D02*
X77343000Y-94107000D01*
%TO.N,Row0*%
X124206000Y-91186000D02*
X123190000Y-92202000D01*
X123190000Y-92202000D02*
X123063000Y-92202000D01*
X99616205Y-93815500D02*
X103632000Y-93815500D01*
X123063000Y-92202000D02*
X142113000Y-92202000D01*
X104521000Y-92202000D02*
X123063000Y-92202000D01*
X94238866Y-99192839D02*
X99616205Y-93815500D01*
X142113000Y-92202000D02*
X143129000Y-91186000D01*
%TO.N,Row1*%
X98043981Y-107188000D02*
X109474000Y-107188000D01*
X147320000Y-107188000D02*
X147574000Y-107188000D01*
X128524000Y-107188000D02*
X147320000Y-107188000D01*
X129540000Y-106172000D02*
X128524000Y-107188000D01*
X109474000Y-107188000D02*
X128524000Y-107188000D01*
X110490000Y-106172000D02*
X109474000Y-107188000D01*
X147574000Y-107188000D02*
X148590000Y-106172000D01*
X93599000Y-102743019D02*
X98043981Y-107188000D01*
X93599000Y-101600000D02*
X93599000Y-102743019D01*
%TO.N,Col0*%
X96315500Y-99137500D02*
X98341250Y-99137500D01*
X94735055Y-100717945D02*
X96315500Y-99137500D01*
X94239893Y-100717945D02*
X94735055Y-100717945D01*
%TO.N,Col1*%
X94501183Y-99955827D02*
X99916510Y-94540500D01*
X109817500Y-93815500D02*
X115062000Y-93815500D01*
X104902000Y-93853000D02*
X104939500Y-93815500D01*
X99916510Y-94540500D02*
X104214500Y-94540500D01*
X104214500Y-94540500D02*
X104902000Y-93853000D01*
X104939500Y-93815500D02*
X109817500Y-93815500D01*
X93593223Y-99955827D02*
X94501183Y-99955827D01*
%TO.N,Col2*%
X99441000Y-92964000D02*
X93980000Y-98425000D01*
X129286000Y-92964000D02*
X99441000Y-92964000D01*
X133985000Y-92964000D02*
X129286000Y-92964000D01*
X93980000Y-98425000D02*
X93599000Y-98425000D01*
%TO.N,Net-(R1-Pad2)*%
X78486000Y-86106000D02*
X78232000Y-86360000D01*
X97409000Y-87630000D02*
X96774000Y-86995000D01*
X91821000Y-86106000D02*
X78486000Y-86106000D01*
X92837000Y-86995000D02*
X92710000Y-86995000D01*
X105410000Y-87630000D02*
X97409000Y-87630000D01*
X96774000Y-86995000D02*
X92837000Y-86995000D01*
X92710000Y-86995000D02*
X91821000Y-86106000D01*
%TO.N,Net-(R2-Pad2)*%
X96520000Y-87630000D02*
X92456000Y-87630000D01*
X105410000Y-88629503D02*
X97519503Y-88629503D01*
X92456000Y-87630000D02*
X91694000Y-86868000D01*
X97519503Y-88629503D02*
X96520000Y-87630000D01*
X91694000Y-86868000D02*
X79110060Y-86868000D01*
X79110060Y-86868000D02*
X79063636Y-86914424D01*
%TO.N,Net-(R3-Pad1)*%
X78448500Y-91783500D02*
X81317500Y-91783500D01*
X77470000Y-90805000D02*
X78448500Y-91783500D01*
%TD*%
M02*
