%TF.GenerationSoftware,KiCad,Pcbnew,(6.0.11)*%
%TF.CreationDate,2023-05-27T14:51:32-04:00*%
%TF.ProjectId,MacroPad1.0,4d616372-6f50-4616-9431-2e302e6b6963,rev?*%
%TF.SameCoordinates,Original*%
%TF.FileFunction,Paste,Bot*%
%TF.FilePolarity,Positive*%
%FSLAX46Y46*%
G04 Gerber Fmt 4.6, Leading zero omitted, Abs format (unit mm)*
G04 Created by KiCad (PCBNEW (6.0.11)) date 2023-05-27 14:51:32*
%MOMM*%
%LPD*%
G01*
G04 APERTURE LIST*
G04 Aperture macros list*
%AMRoundRect*
0 Rectangle with rounded corners*
0 $1 Rounding radius*
0 $2 $3 $4 $5 $6 $7 $8 $9 X,Y pos of 4 corners*
0 Add a 4 corners polygon primitive as box body*
4,1,4,$2,$3,$4,$5,$6,$7,$8,$9,$2,$3,0*
0 Add four circle primitives for the rounded corners*
1,1,$1+$1,$2,$3*
1,1,$1+$1,$4,$5*
1,1,$1+$1,$6,$7*
1,1,$1+$1,$8,$9*
0 Add four rect primitives between the rounded corners*
20,1,$1+$1,$2,$3,$4,$5,0*
20,1,$1+$1,$4,$5,$6,$7,0*
20,1,$1+$1,$6,$7,$8,$9,0*
20,1,$1+$1,$8,$9,$2,$3,0*%
G04 Aperture macros list end*
%ADD10RoundRect,0.250000X0.262500X0.450000X-0.262500X0.450000X-0.262500X-0.450000X0.262500X-0.450000X0*%
%ADD11RoundRect,0.250000X0.475000X-0.250000X0.475000X0.250000X-0.475000X0.250000X-0.475000X-0.250000X0*%
%ADD12R,1.200000X0.900000*%
%ADD13RoundRect,0.250000X-0.475000X0.250000X-0.475000X-0.250000X0.475000X-0.250000X0.475000X0.250000X0*%
%ADD14RoundRect,0.250000X-0.450000X0.262500X-0.450000X-0.262500X0.450000X-0.262500X0.450000X0.262500X0*%
%ADD15RoundRect,0.250000X-0.625000X0.375000X-0.625000X-0.375000X0.625000X-0.375000X0.625000X0.375000X0*%
%ADD16RoundRect,0.250000X-0.250000X-0.475000X0.250000X-0.475000X0.250000X0.475000X-0.250000X0.475000X0*%
%ADD17R,1.800000X1.100000*%
%ADD18R,0.500000X2.250000*%
%ADD19R,1.500000X0.550000*%
%ADD20R,0.550000X1.500000*%
%ADD21R,1.400000X1.200000*%
G04 APERTURE END LIST*
D10*
%TO.C,R4*%
X89273500Y-110204250D03*
X87448500Y-110204250D03*
%TD*%
D11*
%TO.C,C6*%
X94615000Y-93247250D03*
X94615000Y-91347250D03*
%TD*%
D12*
%TO.C,D3*%
X123158250Y-82773250D03*
X123158250Y-86073250D03*
%TD*%
D13*
%TO.C,C2*%
X84836000Y-87664250D03*
X84836000Y-89564250D03*
%TD*%
D11*
%TO.C,C3*%
X76835000Y-89596000D03*
X76835000Y-87696000D03*
%TD*%
D12*
%TO.C,D1*%
X104140000Y-82773250D03*
X104140000Y-86073250D03*
%TD*%
%TO.C,D6*%
X147828000Y-101823250D03*
X147828000Y-105123250D03*
%TD*%
D14*
%TO.C,R3*%
X72771000Y-91638750D03*
X72771000Y-93463750D03*
%TD*%
%TO.C,R1*%
X78994000Y-82494750D03*
X78994000Y-84319750D03*
%TD*%
D12*
%TO.C,D2*%
X109696250Y-101823250D03*
X109696250Y-105123250D03*
%TD*%
D11*
%TO.C,C4*%
X73660000Y-101060250D03*
X73660000Y-99160250D03*
%TD*%
D15*
%TO.C,F1*%
X73787000Y-82261250D03*
X73787000Y-85061250D03*
%TD*%
D11*
%TO.C,C1*%
X88773000Y-89564250D03*
X88773000Y-87664250D03*
%TD*%
D16*
%TO.C,C5*%
X82966000Y-110204250D03*
X84866000Y-110204250D03*
%TD*%
D17*
%TO.C,SW1*%
X78665000Y-107973250D03*
X72465000Y-111673250D03*
X78665000Y-111673250D03*
X72465000Y-107973250D03*
%TD*%
D12*
%TO.C,D4*%
X128778000Y-101823250D03*
X128778000Y-105123250D03*
%TD*%
D18*
%TO.C,USB1*%
X83007000Y-77782500D03*
X82207000Y-77782500D03*
X81407000Y-77782500D03*
X80607000Y-77782500D03*
X79807000Y-77782500D03*
%TD*%
D12*
%TO.C,D5*%
X142240000Y-82773250D03*
X142240000Y-86073250D03*
%TD*%
D19*
%TO.C,U1*%
X79644000Y-103790250D03*
X79644000Y-102990250D03*
X79644000Y-102190250D03*
X79644000Y-101390250D03*
X79644000Y-100590250D03*
X79644000Y-99790250D03*
X79644000Y-98990250D03*
X79644000Y-98190250D03*
X79644000Y-97390250D03*
X79644000Y-96590250D03*
X79644000Y-95790250D03*
D20*
X81344000Y-94090250D03*
X82144000Y-94090250D03*
X82944000Y-94090250D03*
X83744000Y-94090250D03*
X84544000Y-94090250D03*
X85344000Y-94090250D03*
X86144000Y-94090250D03*
X86944000Y-94090250D03*
X87744000Y-94090250D03*
X88544000Y-94090250D03*
X89344000Y-94090250D03*
D19*
X91044000Y-95790250D03*
X91044000Y-96590250D03*
X91044000Y-97390250D03*
X91044000Y-98190250D03*
X91044000Y-98990250D03*
X91044000Y-99790250D03*
X91044000Y-100590250D03*
X91044000Y-101390250D03*
X91044000Y-102190250D03*
X91044000Y-102990250D03*
X91044000Y-103790250D03*
D20*
X89344000Y-105490250D03*
X88544000Y-105490250D03*
X87744000Y-105490250D03*
X86944000Y-105490250D03*
X86144000Y-105490250D03*
X85344000Y-105490250D03*
X84544000Y-105490250D03*
X83744000Y-105490250D03*
X82944000Y-105490250D03*
X82144000Y-105490250D03*
X81344000Y-105490250D03*
%TD*%
D14*
%TO.C,R2*%
X82804000Y-82494750D03*
X82804000Y-84319750D03*
%TD*%
D13*
%TO.C,C7*%
X72771000Y-95284250D03*
X72771000Y-97184250D03*
%TD*%
D21*
%TO.C,Y1*%
X81999000Y-89464250D03*
X79799000Y-89464250D03*
X79799000Y-87764250D03*
X81999000Y-87764250D03*
%TD*%
M02*
