%TF.GenerationSoftware,KiCad,Pcbnew,(6.0.11)*%
%TF.CreationDate,2023-05-29T20:04:11-04:00*%
%TF.ProjectId,MacroPad1.1,4d616372-6f50-4616-9431-2e312e6b6963,rev?*%
%TF.SameCoordinates,Original*%
%TF.FileFunction,Soldermask,Bot*%
%TF.FilePolarity,Negative*%
%FSLAX46Y46*%
G04 Gerber Fmt 4.6, Leading zero omitted, Abs format (unit mm)*
G04 Created by KiCad (PCBNEW (6.0.11)) date 2023-05-29 20:04:11*
%MOMM*%
%LPD*%
G01*
G04 APERTURE LIST*
G04 Aperture macros list*
%AMRoundRect*
0 Rectangle with rounded corners*
0 $1 Rounding radius*
0 $2 $3 $4 $5 $6 $7 $8 $9 X,Y pos of 4 corners*
0 Add a 4 corners polygon primitive as box body*
4,1,4,$2,$3,$4,$5,$6,$7,$8,$9,$2,$3,0*
0 Add four circle primitives for the rounded corners*
1,1,$1+$1,$2,$3*
1,1,$1+$1,$4,$5*
1,1,$1+$1,$6,$7*
1,1,$1+$1,$8,$9*
0 Add four rect primitives between the rounded corners*
20,1,$1+$1,$2,$3,$4,$5,0*
20,1,$1+$1,$4,$5,$6,$7,0*
20,1,$1+$1,$6,$7,$8,$9,0*
20,1,$1+$1,$8,$9,$2,$3,0*%
%AMHorizOval*
0 Thick line with rounded ends*
0 $1 width*
0 $2 $3 position (X,Y) of the first rounded end (center of the circle)*
0 $4 $5 position (X,Y) of the second rounded end (center of the circle)*
0 Add line between two ends*
20,1,$1,$2,$3,$4,$5,0*
0 Add two circle primitives to create the rounded ends*
1,1,$1,$2,$3*
1,1,$1,$4,$5*%
G04 Aperture macros list end*
%ADD10C,1.750000*%
%ADD11C,3.987800*%
%ADD12HorizOval,2.250000X0.655001X0.730000X-0.655001X-0.730000X0*%
%ADD13C,2.250000*%
%ADD14HorizOval,2.250000X0.020000X0.290000X-0.020000X-0.290000X0*%
%ADD15RoundRect,0.250000X0.262500X0.450000X-0.262500X0.450000X-0.262500X-0.450000X0.262500X-0.450000X0*%
%ADD16RoundRect,0.250000X0.475000X-0.250000X0.475000X0.250000X-0.475000X0.250000X-0.475000X-0.250000X0*%
%ADD17R,1.200000X0.900000*%
%ADD18RoundRect,0.250000X-0.475000X0.250000X-0.475000X-0.250000X0.475000X-0.250000X0.475000X0.250000X0*%
%ADD19RoundRect,0.250000X-0.450000X0.262500X-0.450000X-0.262500X0.450000X-0.262500X0.450000X0.262500X0*%
%ADD20RoundRect,0.250000X-0.250000X-0.475000X0.250000X-0.475000X0.250000X0.475000X-0.250000X0.475000X0*%
%ADD21RoundRect,0.250000X0.375000X0.625000X-0.375000X0.625000X-0.375000X-0.625000X0.375000X-0.625000X0*%
%ADD22R,1.800000X1.100000*%
%ADD23R,0.500000X2.250000*%
%ADD24O,1.700000X2.700000*%
%ADD25R,1.500000X0.550000*%
%ADD26R,0.550000X1.500000*%
%ADD27R,1.400000X1.200000*%
G04 APERTURE END LIST*
D10*
%TO.C,MX6*%
X144021250Y-103137500D03*
X133861250Y-103137500D03*
D11*
X138941250Y-103137500D03*
D12*
X135786251Y-99867500D03*
D13*
X136441250Y-99137500D03*
X141481250Y-98057500D03*
D14*
X141461250Y-98347500D03*
%TD*%
D11*
%TO.C,MX3*%
X114303250Y-84087500D03*
D10*
X109223250Y-84087500D03*
X119383250Y-84087500D03*
D13*
X111803250Y-80087500D03*
D12*
X111148251Y-80817500D03*
D14*
X116823250Y-79297500D03*
D13*
X116843250Y-79007500D03*
%TD*%
D10*
%TO.C,MX5*%
X138433250Y-84087500D03*
D11*
X133353250Y-84087500D03*
D10*
X128273250Y-84087500D03*
D13*
X130853250Y-80087500D03*
D12*
X130198251Y-80817500D03*
D13*
X135893250Y-79007500D03*
D14*
X135873250Y-79297500D03*
%TD*%
D10*
%TO.C,MX4*%
X114811250Y-103137500D03*
X124971250Y-103137500D03*
D11*
X119891250Y-103137500D03*
D13*
X117391250Y-99137500D03*
D12*
X116736251Y-99867500D03*
D13*
X122431250Y-98057500D03*
D14*
X122411250Y-98347500D03*
%TD*%
D11*
%TO.C,MX1*%
X95285000Y-84087500D03*
D10*
X100365000Y-84087500D03*
X90205000Y-84087500D03*
D12*
X92130001Y-80817500D03*
D13*
X92785000Y-80087500D03*
X97825000Y-79007500D03*
D14*
X97805000Y-79297500D03*
%TD*%
D10*
%TO.C,MX2*%
X105921250Y-103137500D03*
D11*
X100841250Y-103137500D03*
D10*
X95761250Y-103137500D03*
D13*
X98341250Y-99137500D03*
D12*
X97686251Y-99867500D03*
D13*
X103381250Y-98057500D03*
D14*
X103361250Y-98347500D03*
%TD*%
D15*
%TO.C,R4*%
X89502750Y-110331250D03*
X87677750Y-110331250D03*
%TD*%
D16*
%TO.C,C6*%
X96043750Y-91437500D03*
X96043750Y-89537500D03*
%TD*%
D17*
%TO.C,D3*%
X122399500Y-82437500D03*
X122399500Y-85737500D03*
%TD*%
D18*
%TO.C,C2*%
X88477349Y-88788766D03*
X88477349Y-90688766D03*
%TD*%
D16*
%TO.C,C3*%
X80476349Y-90720516D03*
X80476349Y-88820516D03*
%TD*%
D17*
%TO.C,D1*%
X103381250Y-82737500D03*
X103381250Y-86037500D03*
%TD*%
%TO.C,D6*%
X147069250Y-101487500D03*
X147069250Y-104787500D03*
%TD*%
D19*
%TO.C,R3*%
X76200000Y-90654500D03*
X76200000Y-92479500D03*
%TD*%
%TO.C,R1*%
X104775000Y-79137500D03*
X104775000Y-80962500D03*
%TD*%
D17*
%TO.C,D2*%
X108937500Y-101487500D03*
X108937500Y-104787500D03*
%TD*%
D20*
%TO.C,C4*%
X75504000Y-101854000D03*
X77404000Y-101854000D03*
%TD*%
D21*
%TO.C,F1*%
X95126000Y-75692000D03*
X92326000Y-75692000D03*
%TD*%
D16*
%TO.C,C1*%
X92075000Y-91437500D03*
X92075000Y-89537500D03*
%TD*%
D20*
%TO.C,C5*%
X83195250Y-110331250D03*
X85095250Y-110331250D03*
%TD*%
D22*
%TO.C,SW1*%
X86666000Y-77906000D03*
X80466000Y-81606000D03*
X86666000Y-81606000D03*
X80466000Y-77906000D03*
%TD*%
D17*
%TO.C,D4*%
X128019250Y-101487500D03*
X128019250Y-104787500D03*
%TD*%
D23*
%TO.C,USB1*%
X106375000Y-75937500D03*
X105575000Y-75937500D03*
X104775000Y-75937500D03*
X103975000Y-75937500D03*
X103175000Y-75937500D03*
D24*
X108425000Y-75937500D03*
X101125000Y-75937500D03*
X108425000Y-71437500D03*
X101125000Y-71437500D03*
%TD*%
D17*
%TO.C,D5*%
X141481250Y-82437500D03*
X141481250Y-85737500D03*
%TD*%
D25*
%TO.C,U1*%
X80818750Y-104012500D03*
X80818750Y-103212500D03*
X80818750Y-102412500D03*
X80818750Y-101612500D03*
X80818750Y-100812500D03*
X80818750Y-100012500D03*
X80818750Y-99212500D03*
X80818750Y-98412500D03*
X80818750Y-97612500D03*
X80818750Y-96812500D03*
X80818750Y-96012500D03*
D26*
X82518750Y-94312500D03*
X83318750Y-94312500D03*
X84118750Y-94312500D03*
X84918750Y-94312500D03*
X85718750Y-94312500D03*
X86518750Y-94312500D03*
X87318750Y-94312500D03*
X88118750Y-94312500D03*
X88918750Y-94312500D03*
X89718750Y-94312500D03*
X90518750Y-94312500D03*
D25*
X92218750Y-96012500D03*
X92218750Y-96812500D03*
X92218750Y-97612500D03*
X92218750Y-98412500D03*
X92218750Y-99212500D03*
X92218750Y-100012500D03*
X92218750Y-100812500D03*
X92218750Y-101612500D03*
X92218750Y-102412500D03*
X92218750Y-103212500D03*
X92218750Y-104012500D03*
D26*
X90518750Y-105712500D03*
X89718750Y-105712500D03*
X88918750Y-105712500D03*
X88118750Y-105712500D03*
X87318750Y-105712500D03*
X86518750Y-105712500D03*
X85718750Y-105712500D03*
X84918750Y-105712500D03*
X84118750Y-105712500D03*
X83318750Y-105712500D03*
X82518750Y-105712500D03*
%TD*%
D19*
%TO.C,R2*%
X107188000Y-79137500D03*
X107188000Y-80962500D03*
%TD*%
D18*
%TO.C,C7*%
X76200000Y-95824000D03*
X76200000Y-97724000D03*
%TD*%
D27*
%TO.C,Y1*%
X85640349Y-90588766D03*
X83440349Y-90588766D03*
X83440349Y-88888766D03*
X85640349Y-88888766D03*
%TD*%
M02*
