M48
; DRILL file {KiCad (6.0.11)} date Mon May 29 20:05:01 2023
; FORMAT={-:-/ absolute / inch / decimal}
; #@! TF.CreationDate,2023-05-29T20:05:01-04:00
; #@! TF.GenerationSoftware,Kicad,Pcbnew,(6.0.11)
; #@! TF.FileFunction,Plated,1,2,PTH
FMAT,2
INCH
; #@! TA.AperFunction,Plated,PTH,ViaDrill
T1C0.0157
; #@! TA.AperFunction,Plated,PTH,ComponentDrill
T2C0.0276
; #@! TA.AperFunction,Plated,PTH,ComponentDrill
T3C0.0579
%
G90
G05
T1
X2.9726Y-4.0676
X3.0Y-4.265
X3.02Y-3.73
X3.05Y-3.575
X3.05Y-3.645
X3.08Y-3.4
X3.1127Y-3.4218
X3.1262Y-3.705
X3.13Y-4.065
X3.16Y-3.645
X3.1684Y-3.4516
X3.2015Y-3.6135
X3.275Y-4.285
X3.275Y-4.395
X3.31Y-3.6535
X3.37Y-3.45
X3.48Y-3.45
X3.49Y-4.285
X3.575Y-3.6
X3.625Y-3.48
X3.67Y-3.6
X3.6848Y-3.9353
X3.685Y-3.875
X3.685Y-4.0
X3.695Y-3.66
X3.7102Y-3.9052
X3.7102Y-3.9653
X3.735Y-3.6
X3.78Y-3.48
X3.84Y-3.525
X3.84Y-3.65
X4.08Y-3.6935
X4.115Y-3.63
X4.15Y-3.45
X4.15Y-3.4894
X4.1651Y-3.5257
X4.3235Y-3.6935
X4.35Y-4.18
X4.53Y-3.6935
X4.89Y-3.59
X5.09Y-3.66
X5.1Y-4.18
X5.275Y-3.66
X5.635Y-3.59
X5.85Y-4.18
T3
X3.6014Y-3.2105
X3.653Y-3.1531
X3.8201Y-3.9605
X3.8498Y-3.1334
X3.8514Y-3.1105
X3.8717Y-3.9031
X4.0686Y-3.8834
X4.0701Y-3.8605
X4.3501Y-3.2105
X4.4017Y-3.1531
X4.5701Y-3.9605
X4.5986Y-3.1334
X4.6001Y-3.1105
X4.6217Y-3.9031
X4.8186Y-3.8834
X4.8201Y-3.8605
X5.1001Y-3.2105
X5.1517Y-3.1531
X5.3201Y-3.9605
X5.3486Y-3.1334
X5.3501Y-3.1105
X5.3717Y-3.9031
X5.5686Y-3.8834
X5.5701Y-3.8605
T2
G00X3.9813Y-2.7889
M15
G01X3.9813Y-2.8361
M16
G05
G00X3.9813Y-2.966
M15
G01X3.9813Y-3.0133
M16
G05
G00X4.2687Y-2.7889
M15
G01X4.2687Y-2.8361
M16
G05
G00X4.2687Y-2.966
M15
G01X4.2687Y-3.0133
M16
G05
T0
M30
