M48
; DRILL file {KiCad (6.0.11)} date Sat May 27 14:53:57 2023
; FORMAT={-:-/ absolute / inch / decimal}
; #@! TF.CreationDate,2023-05-27T14:53:57-04:00
; #@! TF.GenerationSoftware,Kicad,Pcbnew,(6.0.11)
; #@! TF.FileFunction,Plated,1,2,PTH
FMAT,2
INCH
; #@! TA.AperFunction,Plated,PTH,ViaDrill
T1C0.0157
; #@! TA.AperFunction,Plated,PTH,ComponentDrill
T2C0.0276
; #@! TA.AperFunction,Plated,PTH,ComponentDrill
T3C0.0579
%
G90
G05
T1
X2.785Y-3.6738
X2.91Y-3.6437
X2.915Y-3.7988
X2.915Y-3.8687
X2.945Y-3.9387
X2.955Y-3.9787
X2.965Y-3.3537
X2.98Y-3.7837
X2.98Y-4.4538
X3.0095Y-3.3538
X3.025Y-3.4173
X3.0385Y-3.7823
X3.04Y-3.6938
X3.0639Y-3.9205
X3.085Y-3.9537
X3.085Y-4.0144
X3.085Y-4.0537
X3.11Y-3.3538
X3.185Y-4.4138
X3.23Y-3.4087
X3.235Y-3.6088
X3.265Y-3.6437
X3.265Y-4.4538
X3.34Y-3.4087
X3.34Y-4.4138
X3.43Y-3.3737
X3.495Y-3.4087
X3.55Y-3.4537
X3.55Y-3.5288
X3.635Y-3.8037
X3.64Y-3.8638
X3.64Y-3.9287
X3.64Y-3.9937
X3.655Y-3.5587
X3.675Y-3.6687
X3.675Y-3.8987
X3.675Y-3.9638
X3.725Y-3.5587
X3.8Y-3.7887
X4.175Y-3.6873
X4.4Y-4.2237
X4.6Y-3.7188
X4.925Y-3.6887
X5.15Y-4.2237
X5.35Y-3.6587
X5.675Y-3.6887
X5.9Y-4.2237
T3
X3.6313Y-3.2237
X3.6828Y-3.1663
X3.85Y-3.9737
X3.8797Y-3.1466
X3.8813Y-3.1237
X3.9016Y-3.9163
X4.0984Y-3.8966
X4.1Y-3.8737
X4.38Y-3.2237
X4.4316Y-3.1663
X4.6Y-3.9737
X4.6284Y-3.1466
X4.63Y-3.1237
X4.6516Y-3.9163
X4.8484Y-3.8966
X4.85Y-3.8737
X5.13Y-3.2237
X5.1816Y-3.1663
X5.35Y-3.9737
X5.3784Y-3.1466
X5.38Y-3.1237
X5.4016Y-3.9163
X5.5984Y-3.8966
X5.6Y-3.8737
T2
G00X3.0613Y-2.8615
M15
G01X3.0613Y-2.9088
M16
G05
G00X3.0613Y-3.0387
M15
G01X3.0613Y-3.0859
M16
G05
G00X3.3487Y-2.8615
M15
G01X3.3487Y-2.9088
M16
G05
G00X3.3487Y-3.0387
M15
G01X3.3487Y-3.0859
M16
G05
T0
M30
