%TF.GenerationSoftware,KiCad,Pcbnew,(6.0.11)*%
%TF.CreationDate,2023-05-29T20:04:11-04:00*%
%TF.ProjectId,MacroPad1.1,4d616372-6f50-4616-9431-2e312e6b6963,rev?*%
%TF.SameCoordinates,Original*%
%TF.FileFunction,Legend,Bot*%
%TF.FilePolarity,Positive*%
%FSLAX46Y46*%
G04 Gerber Fmt 4.6, Leading zero omitted, Abs format (unit mm)*
G04 Created by KiCad (PCBNEW (6.0.11)) date 2023-05-29 20:04:11*
%MOMM*%
%LPD*%
G01*
G04 APERTURE LIST*
%ADD10C,0.150000*%
%ADD11C,0.120000*%
G04 APERTURE END LIST*
D10*
X81938392Y-113958630D02*
X81938392Y-112958630D01*
X81938392Y-113339583D02*
X81843154Y-113291964D01*
X81652678Y-113291964D01*
X81557440Y-113339583D01*
X81509821Y-113387202D01*
X81462202Y-113482440D01*
X81462202Y-113768154D01*
X81509821Y-113863392D01*
X81557440Y-113911011D01*
X81652678Y-113958630D01*
X81843154Y-113958630D01*
X81938392Y-113911011D01*
X81128869Y-113291964D02*
X80890773Y-113958630D01*
X80652678Y-113291964D02*
X80890773Y-113958630D01*
X80986011Y-114196726D01*
X81033630Y-114244345D01*
X81128869Y-114291964D01*
X79652678Y-113291964D02*
X79271726Y-113291964D01*
X79509821Y-112958630D02*
X79509821Y-113815773D01*
X79462202Y-113911011D01*
X79366964Y-113958630D01*
X79271726Y-113958630D01*
X78938392Y-113958630D02*
X78938392Y-113291964D01*
X78938392Y-112958630D02*
X78986011Y-113006250D01*
X78938392Y-113053869D01*
X78890773Y-113006250D01*
X78938392Y-112958630D01*
X78938392Y-113053869D01*
X78462202Y-113291964D02*
X78462202Y-113958630D01*
X78462202Y-113387202D02*
X78414583Y-113339583D01*
X78319345Y-113291964D01*
X78176488Y-113291964D01*
X78081250Y-113339583D01*
X78033630Y-113434821D01*
X78033630Y-113958630D01*
X77414583Y-113958630D02*
X77509821Y-113911011D01*
X77557440Y-113863392D01*
X77605059Y-113768154D01*
X77605059Y-113482440D01*
X77557440Y-113387202D01*
X77509821Y-113339583D01*
X77414583Y-113291964D01*
X77271726Y-113291964D01*
X77176488Y-113339583D01*
X77128869Y-113387202D01*
X77081250Y-113482440D01*
X77081250Y-113768154D01*
X77128869Y-113863392D01*
X77176488Y-113911011D01*
X77271726Y-113958630D01*
X77414583Y-113958630D01*
X76033630Y-113053869D02*
X75843154Y-112911011D01*
X75652678Y-113053869D01*
X75462202Y-113053869D02*
X75271726Y-112911011D01*
X75081250Y-113053869D01*
X147954428Y-73858380D02*
X147954428Y-72858380D01*
X147621095Y-73572666D01*
X147287761Y-72858380D01*
X147287761Y-73858380D01*
X146383000Y-73858380D02*
X146383000Y-73334571D01*
X146430619Y-73239333D01*
X146525857Y-73191714D01*
X146716333Y-73191714D01*
X146811571Y-73239333D01*
X146383000Y-73810761D02*
X146478238Y-73858380D01*
X146716333Y-73858380D01*
X146811571Y-73810761D01*
X146859190Y-73715523D01*
X146859190Y-73620285D01*
X146811571Y-73525047D01*
X146716333Y-73477428D01*
X146478238Y-73477428D01*
X146383000Y-73429809D01*
X145478238Y-73810761D02*
X145573476Y-73858380D01*
X145763952Y-73858380D01*
X145859190Y-73810761D01*
X145906809Y-73763142D01*
X145954428Y-73667904D01*
X145954428Y-73382190D01*
X145906809Y-73286952D01*
X145859190Y-73239333D01*
X145763952Y-73191714D01*
X145573476Y-73191714D01*
X145478238Y-73239333D01*
X145049666Y-73858380D02*
X145049666Y-73191714D01*
X145049666Y-73382190D02*
X145002047Y-73286952D01*
X144954428Y-73239333D01*
X144859190Y-73191714D01*
X144763952Y-73191714D01*
X144287761Y-73858380D02*
X144383000Y-73810761D01*
X144430619Y-73763142D01*
X144478238Y-73667904D01*
X144478238Y-73382190D01*
X144430619Y-73286952D01*
X144383000Y-73239333D01*
X144287761Y-73191714D01*
X144144904Y-73191714D01*
X144049666Y-73239333D01*
X144002047Y-73286952D01*
X143954428Y-73382190D01*
X143954428Y-73667904D01*
X144002047Y-73763142D01*
X144049666Y-73810761D01*
X144144904Y-73858380D01*
X144287761Y-73858380D01*
X143525857Y-73858380D02*
X143525857Y-72858380D01*
X143144904Y-72858380D01*
X143049666Y-72906000D01*
X143002047Y-72953619D01*
X142954428Y-73048857D01*
X142954428Y-73191714D01*
X143002047Y-73286952D01*
X143049666Y-73334571D01*
X143144904Y-73382190D01*
X143525857Y-73382190D01*
X142097285Y-73858380D02*
X142097285Y-73334571D01*
X142144904Y-73239333D01*
X142240142Y-73191714D01*
X142430619Y-73191714D01*
X142525857Y-73239333D01*
X142097285Y-73810761D02*
X142192523Y-73858380D01*
X142430619Y-73858380D01*
X142525857Y-73810761D01*
X142573476Y-73715523D01*
X142573476Y-73620285D01*
X142525857Y-73525047D01*
X142430619Y-73477428D01*
X142192523Y-73477428D01*
X142097285Y-73429809D01*
X141192523Y-73858380D02*
X141192523Y-72858380D01*
X141192523Y-73810761D02*
X141287761Y-73858380D01*
X141478238Y-73858380D01*
X141573476Y-73810761D01*
X141621095Y-73763142D01*
X141668714Y-73667904D01*
X141668714Y-73382190D01*
X141621095Y-73286952D01*
X141573476Y-73239333D01*
X141478238Y-73191714D01*
X141287761Y-73191714D01*
X141192523Y-73239333D01*
X140192523Y-73858380D02*
X140763952Y-73858380D01*
X140478238Y-73858380D02*
X140478238Y-72858380D01*
X140573476Y-73001238D01*
X140668714Y-73096476D01*
X140763952Y-73144095D01*
X139763952Y-73763142D02*
X139716333Y-73810761D01*
X139763952Y-73858380D01*
X139811571Y-73810761D01*
X139763952Y-73763142D01*
X139763952Y-73858380D01*
X138763952Y-73858380D02*
X139335380Y-73858380D01*
X139049666Y-73858380D02*
X139049666Y-72858380D01*
X139144904Y-73001238D01*
X139240142Y-73096476D01*
X139335380Y-73144095D01*
%TO.C,R4*%
X88756916Y-109133630D02*
X89090250Y-108657440D01*
X89328345Y-109133630D02*
X89328345Y-108133630D01*
X88947392Y-108133630D01*
X88852154Y-108181250D01*
X88804535Y-108228869D01*
X88756916Y-108324107D01*
X88756916Y-108466964D01*
X88804535Y-108562202D01*
X88852154Y-108609821D01*
X88947392Y-108657440D01*
X89328345Y-108657440D01*
X87899773Y-108466964D02*
X87899773Y-109133630D01*
X88137869Y-108086011D02*
X88375964Y-108800297D01*
X87756916Y-108800297D01*
%TO.C,C6*%
X98080892Y-90320833D02*
X98128511Y-90273214D01*
X98176130Y-90130357D01*
X98176130Y-90035119D01*
X98128511Y-89892261D01*
X98033273Y-89797023D01*
X97938035Y-89749404D01*
X97747559Y-89701785D01*
X97604702Y-89701785D01*
X97414226Y-89749404D01*
X97318988Y-89797023D01*
X97223750Y-89892261D01*
X97176130Y-90035119D01*
X97176130Y-90130357D01*
X97223750Y-90273214D01*
X97271369Y-90320833D01*
X97176130Y-91177976D02*
X97176130Y-90987500D01*
X97223750Y-90892261D01*
X97271369Y-90844642D01*
X97414226Y-90749404D01*
X97604702Y-90701785D01*
X97985654Y-90701785D01*
X98080892Y-90749404D01*
X98128511Y-90797023D01*
X98176130Y-90892261D01*
X98176130Y-91082738D01*
X98128511Y-91177976D01*
X98080892Y-91225595D01*
X97985654Y-91273214D01*
X97747559Y-91273214D01*
X97652321Y-91225595D01*
X97604702Y-91177976D01*
X97557083Y-91082738D01*
X97557083Y-90892261D01*
X97604702Y-90797023D01*
X97652321Y-90749404D01*
X97747559Y-90701785D01*
%TO.C,D3*%
X120851880Y-83349404D02*
X119851880Y-83349404D01*
X119851880Y-83587500D01*
X119899500Y-83730357D01*
X119994738Y-83825595D01*
X120089976Y-83873214D01*
X120280452Y-83920833D01*
X120423309Y-83920833D01*
X120613785Y-83873214D01*
X120709023Y-83825595D01*
X120804261Y-83730357D01*
X120851880Y-83587500D01*
X120851880Y-83349404D01*
X119851880Y-84254166D02*
X119851880Y-84873214D01*
X120232833Y-84539880D01*
X120232833Y-84682738D01*
X120280452Y-84777976D01*
X120328071Y-84825595D01*
X120423309Y-84873214D01*
X120661404Y-84873214D01*
X120756642Y-84825595D01*
X120804261Y-84777976D01*
X120851880Y-84682738D01*
X120851880Y-84397023D01*
X120804261Y-84301785D01*
X120756642Y-84254166D01*
%TO.C,C2*%
X87154491Y-89572099D02*
X87202110Y-89524480D01*
X87249729Y-89381623D01*
X87249729Y-89286385D01*
X87202110Y-89143527D01*
X87106872Y-89048289D01*
X87011634Y-89000670D01*
X86821158Y-88953051D01*
X86678301Y-88953051D01*
X86487825Y-89000670D01*
X86392587Y-89048289D01*
X86297349Y-89143527D01*
X86249729Y-89286385D01*
X86249729Y-89381623D01*
X86297349Y-89524480D01*
X86344968Y-89572099D01*
X86344968Y-89953051D02*
X86297349Y-90000670D01*
X86249729Y-90095908D01*
X86249729Y-90334004D01*
X86297349Y-90429242D01*
X86344968Y-90476861D01*
X86440206Y-90524480D01*
X86535444Y-90524480D01*
X86678301Y-90476861D01*
X87249729Y-89905432D01*
X87249729Y-90524480D01*
%TO.C,C3*%
X82513491Y-89603849D02*
X82561110Y-89556230D01*
X82608729Y-89413373D01*
X82608729Y-89318135D01*
X82561110Y-89175277D01*
X82465872Y-89080039D01*
X82370634Y-89032420D01*
X82180158Y-88984801D01*
X82037301Y-88984801D01*
X81846825Y-89032420D01*
X81751587Y-89080039D01*
X81656349Y-89175277D01*
X81608729Y-89318135D01*
X81608729Y-89413373D01*
X81656349Y-89556230D01*
X81703968Y-89603849D01*
X81608729Y-89937182D02*
X81608729Y-90556230D01*
X81989682Y-90222896D01*
X81989682Y-90365754D01*
X82037301Y-90460992D01*
X82084920Y-90508611D01*
X82180158Y-90556230D01*
X82418253Y-90556230D01*
X82513491Y-90508611D01*
X82561110Y-90460992D01*
X82608729Y-90365754D01*
X82608729Y-90080039D01*
X82561110Y-89984801D01*
X82513491Y-89937182D01*
%TO.C,D1*%
X101833630Y-83649404D02*
X100833630Y-83649404D01*
X100833630Y-83887500D01*
X100881250Y-84030357D01*
X100976488Y-84125595D01*
X101071726Y-84173214D01*
X101262202Y-84220833D01*
X101405059Y-84220833D01*
X101595535Y-84173214D01*
X101690773Y-84125595D01*
X101786011Y-84030357D01*
X101833630Y-83887500D01*
X101833630Y-83649404D01*
X101833630Y-85173214D02*
X101833630Y-84601785D01*
X101833630Y-84887500D02*
X100833630Y-84887500D01*
X100976488Y-84792261D01*
X101071726Y-84697023D01*
X101119345Y-84601785D01*
%TO.C,D6*%
X145521630Y-102399404D02*
X144521630Y-102399404D01*
X144521630Y-102637500D01*
X144569250Y-102780357D01*
X144664488Y-102875595D01*
X144759726Y-102923214D01*
X144950202Y-102970833D01*
X145093059Y-102970833D01*
X145283535Y-102923214D01*
X145378773Y-102875595D01*
X145474011Y-102780357D01*
X145521630Y-102637500D01*
X145521630Y-102399404D01*
X144521630Y-103827976D02*
X144521630Y-103637500D01*
X144569250Y-103542261D01*
X144616869Y-103494642D01*
X144759726Y-103399404D01*
X144950202Y-103351785D01*
X145331154Y-103351785D01*
X145426392Y-103399404D01*
X145474011Y-103447023D01*
X145521630Y-103542261D01*
X145521630Y-103732738D01*
X145474011Y-103827976D01*
X145426392Y-103875595D01*
X145331154Y-103923214D01*
X145093059Y-103923214D01*
X144997821Y-103875595D01*
X144950202Y-103827976D01*
X144902583Y-103732738D01*
X144902583Y-103542261D01*
X144950202Y-103447023D01*
X144997821Y-103399404D01*
X145093059Y-103351785D01*
%TO.C,R3*%
X75002380Y-91400333D02*
X74526190Y-91067000D01*
X75002380Y-90828904D02*
X74002380Y-90828904D01*
X74002380Y-91209857D01*
X74050000Y-91305095D01*
X74097619Y-91352714D01*
X74192857Y-91400333D01*
X74335714Y-91400333D01*
X74430952Y-91352714D01*
X74478571Y-91305095D01*
X74526190Y-91209857D01*
X74526190Y-90828904D01*
X74002380Y-91733666D02*
X74002380Y-92352714D01*
X74383333Y-92019380D01*
X74383333Y-92162238D01*
X74430952Y-92257476D01*
X74478571Y-92305095D01*
X74573809Y-92352714D01*
X74811904Y-92352714D01*
X74907142Y-92305095D01*
X74954761Y-92257476D01*
X75002380Y-92162238D01*
X75002380Y-91876523D01*
X74954761Y-91781285D01*
X74907142Y-91733666D01*
%TO.C,R1*%
X103577380Y-79883333D02*
X103101190Y-79550000D01*
X103577380Y-79311904D02*
X102577380Y-79311904D01*
X102577380Y-79692857D01*
X102625000Y-79788095D01*
X102672619Y-79835714D01*
X102767857Y-79883333D01*
X102910714Y-79883333D01*
X103005952Y-79835714D01*
X103053571Y-79788095D01*
X103101190Y-79692857D01*
X103101190Y-79311904D01*
X103577380Y-80835714D02*
X103577380Y-80264285D01*
X103577380Y-80550000D02*
X102577380Y-80550000D01*
X102720238Y-80454761D01*
X102815476Y-80359523D01*
X102863095Y-80264285D01*
%TO.C,D2*%
X107389880Y-102399404D02*
X106389880Y-102399404D01*
X106389880Y-102637500D01*
X106437500Y-102780357D01*
X106532738Y-102875595D01*
X106627976Y-102923214D01*
X106818452Y-102970833D01*
X106961309Y-102970833D01*
X107151785Y-102923214D01*
X107247023Y-102875595D01*
X107342261Y-102780357D01*
X107389880Y-102637500D01*
X107389880Y-102399404D01*
X106485119Y-103351785D02*
X106437500Y-103399404D01*
X106389880Y-103494642D01*
X106389880Y-103732738D01*
X106437500Y-103827976D01*
X106485119Y-103875595D01*
X106580357Y-103923214D01*
X106675595Y-103923214D01*
X106818452Y-103875595D01*
X107389880Y-103304166D01*
X107389880Y-103923214D01*
%TO.C,C4*%
X76620666Y-103891142D02*
X76668285Y-103938761D01*
X76811142Y-103986380D01*
X76906380Y-103986380D01*
X77049238Y-103938761D01*
X77144476Y-103843523D01*
X77192095Y-103748285D01*
X77239714Y-103557809D01*
X77239714Y-103414952D01*
X77192095Y-103224476D01*
X77144476Y-103129238D01*
X77049238Y-103034000D01*
X76906380Y-102986380D01*
X76811142Y-102986380D01*
X76668285Y-103034000D01*
X76620666Y-103081619D01*
X75763523Y-103319714D02*
X75763523Y-103986380D01*
X76001619Y-102938761D02*
X76239714Y-103653047D01*
X75620666Y-103653047D01*
%TO.C,F1*%
X94059333Y-73800571D02*
X94392666Y-73800571D01*
X94392666Y-74324380D02*
X94392666Y-73324380D01*
X93916476Y-73324380D01*
X93011714Y-74324380D02*
X93583142Y-74324380D01*
X93297428Y-74324380D02*
X93297428Y-73324380D01*
X93392666Y-73467238D01*
X93487904Y-73562476D01*
X93583142Y-73610095D01*
%TO.C,C1*%
X94112142Y-90320833D02*
X94159761Y-90273214D01*
X94207380Y-90130357D01*
X94207380Y-90035119D01*
X94159761Y-89892261D01*
X94064523Y-89797023D01*
X93969285Y-89749404D01*
X93778809Y-89701785D01*
X93635952Y-89701785D01*
X93445476Y-89749404D01*
X93350238Y-89797023D01*
X93255000Y-89892261D01*
X93207380Y-90035119D01*
X93207380Y-90130357D01*
X93255000Y-90273214D01*
X93302619Y-90320833D01*
X94207380Y-91273214D02*
X94207380Y-90701785D01*
X94207380Y-90987500D02*
X93207380Y-90987500D01*
X93350238Y-90892261D01*
X93445476Y-90797023D01*
X93493095Y-90701785D01*
%TO.C,C5*%
X84311916Y-112368392D02*
X84359535Y-112416011D01*
X84502392Y-112463630D01*
X84597630Y-112463630D01*
X84740488Y-112416011D01*
X84835726Y-112320773D01*
X84883345Y-112225535D01*
X84930964Y-112035059D01*
X84930964Y-111892202D01*
X84883345Y-111701726D01*
X84835726Y-111606488D01*
X84740488Y-111511250D01*
X84597630Y-111463630D01*
X84502392Y-111463630D01*
X84359535Y-111511250D01*
X84311916Y-111558869D01*
X83407154Y-111463630D02*
X83883345Y-111463630D01*
X83930964Y-111939821D01*
X83883345Y-111892202D01*
X83788107Y-111844583D01*
X83550011Y-111844583D01*
X83454773Y-111892202D01*
X83407154Y-111939821D01*
X83359535Y-112035059D01*
X83359535Y-112273154D01*
X83407154Y-112368392D01*
X83454773Y-112416011D01*
X83550011Y-112463630D01*
X83788107Y-112463630D01*
X83883345Y-112416011D01*
X83930964Y-112368392D01*
%TO.C,SW1*%
X84899333Y-76096761D02*
X84756476Y-76144380D01*
X84518380Y-76144380D01*
X84423142Y-76096761D01*
X84375523Y-76049142D01*
X84327904Y-75953904D01*
X84327904Y-75858666D01*
X84375523Y-75763428D01*
X84423142Y-75715809D01*
X84518380Y-75668190D01*
X84708857Y-75620571D01*
X84804095Y-75572952D01*
X84851714Y-75525333D01*
X84899333Y-75430095D01*
X84899333Y-75334857D01*
X84851714Y-75239619D01*
X84804095Y-75192000D01*
X84708857Y-75144380D01*
X84470761Y-75144380D01*
X84327904Y-75192000D01*
X83994571Y-75144380D02*
X83756476Y-76144380D01*
X83566000Y-75430095D01*
X83375523Y-76144380D01*
X83137428Y-75144380D01*
X82232666Y-76144380D02*
X82804095Y-76144380D01*
X82518380Y-76144380D02*
X82518380Y-75144380D01*
X82613619Y-75287238D01*
X82708857Y-75382476D01*
X82804095Y-75430095D01*
%TO.C,D4*%
X126471630Y-102399404D02*
X125471630Y-102399404D01*
X125471630Y-102637500D01*
X125519250Y-102780357D01*
X125614488Y-102875595D01*
X125709726Y-102923214D01*
X125900202Y-102970833D01*
X126043059Y-102970833D01*
X126233535Y-102923214D01*
X126328773Y-102875595D01*
X126424011Y-102780357D01*
X126471630Y-102637500D01*
X126471630Y-102399404D01*
X125804964Y-103827976D02*
X126471630Y-103827976D01*
X125424011Y-103589880D02*
X126138297Y-103351785D01*
X126138297Y-103970833D01*
%TO.C,USB1*%
X106513095Y-72921880D02*
X106513095Y-73731404D01*
X106465476Y-73826642D01*
X106417857Y-73874261D01*
X106322619Y-73921880D01*
X106132142Y-73921880D01*
X106036904Y-73874261D01*
X105989285Y-73826642D01*
X105941666Y-73731404D01*
X105941666Y-72921880D01*
X105513095Y-73874261D02*
X105370238Y-73921880D01*
X105132142Y-73921880D01*
X105036904Y-73874261D01*
X104989285Y-73826642D01*
X104941666Y-73731404D01*
X104941666Y-73636166D01*
X104989285Y-73540928D01*
X105036904Y-73493309D01*
X105132142Y-73445690D01*
X105322619Y-73398071D01*
X105417857Y-73350452D01*
X105465476Y-73302833D01*
X105513095Y-73207595D01*
X105513095Y-73112357D01*
X105465476Y-73017119D01*
X105417857Y-72969500D01*
X105322619Y-72921880D01*
X105084523Y-72921880D01*
X104941666Y-72969500D01*
X104179761Y-73398071D02*
X104036904Y-73445690D01*
X103989285Y-73493309D01*
X103941666Y-73588547D01*
X103941666Y-73731404D01*
X103989285Y-73826642D01*
X104036904Y-73874261D01*
X104132142Y-73921880D01*
X104513095Y-73921880D01*
X104513095Y-72921880D01*
X104179761Y-72921880D01*
X104084523Y-72969500D01*
X104036904Y-73017119D01*
X103989285Y-73112357D01*
X103989285Y-73207595D01*
X104036904Y-73302833D01*
X104084523Y-73350452D01*
X104179761Y-73398071D01*
X104513095Y-73398071D01*
X102989285Y-73921880D02*
X103560714Y-73921880D01*
X103275000Y-73921880D02*
X103275000Y-72921880D01*
X103370238Y-73064738D01*
X103465476Y-73159976D01*
X103560714Y-73207595D01*
%TO.C,D5*%
X139933630Y-83349404D02*
X138933630Y-83349404D01*
X138933630Y-83587500D01*
X138981250Y-83730357D01*
X139076488Y-83825595D01*
X139171726Y-83873214D01*
X139362202Y-83920833D01*
X139505059Y-83920833D01*
X139695535Y-83873214D01*
X139790773Y-83825595D01*
X139886011Y-83730357D01*
X139933630Y-83587500D01*
X139933630Y-83349404D01*
X138933630Y-84825595D02*
X138933630Y-84349404D01*
X139409821Y-84301785D01*
X139362202Y-84349404D01*
X139314583Y-84444642D01*
X139314583Y-84682738D01*
X139362202Y-84777976D01*
X139409821Y-84825595D01*
X139505059Y-84873214D01*
X139743154Y-84873214D01*
X139838392Y-84825595D01*
X139886011Y-84777976D01*
X139933630Y-84682738D01*
X139933630Y-84444642D01*
X139886011Y-84349404D01*
X139838392Y-84301785D01*
%TO.C,U1*%
X87280654Y-106914880D02*
X87280654Y-107724404D01*
X87233035Y-107819642D01*
X87185416Y-107867261D01*
X87090178Y-107914880D01*
X86899702Y-107914880D01*
X86804464Y-107867261D01*
X86756845Y-107819642D01*
X86709226Y-107724404D01*
X86709226Y-106914880D01*
X85709226Y-107914880D02*
X86280654Y-107914880D01*
X85994940Y-107914880D02*
X85994940Y-106914880D01*
X86090178Y-107057738D01*
X86185416Y-107152976D01*
X86280654Y-107200595D01*
%TO.C,R2*%
X105990380Y-79883333D02*
X105514190Y-79550000D01*
X105990380Y-79311904D02*
X104990380Y-79311904D01*
X104990380Y-79692857D01*
X105038000Y-79788095D01*
X105085619Y-79835714D01*
X105180857Y-79883333D01*
X105323714Y-79883333D01*
X105418952Y-79835714D01*
X105466571Y-79788095D01*
X105514190Y-79692857D01*
X105514190Y-79311904D01*
X105085619Y-80264285D02*
X105038000Y-80311904D01*
X104990380Y-80407142D01*
X104990380Y-80645238D01*
X105038000Y-80740476D01*
X105085619Y-80788095D01*
X105180857Y-80835714D01*
X105276095Y-80835714D01*
X105418952Y-80788095D01*
X105990380Y-80216666D01*
X105990380Y-80835714D01*
%TO.C,C7*%
X74877142Y-96607333D02*
X74924761Y-96559714D01*
X74972380Y-96416857D01*
X74972380Y-96321619D01*
X74924761Y-96178761D01*
X74829523Y-96083523D01*
X74734285Y-96035904D01*
X74543809Y-95988285D01*
X74400952Y-95988285D01*
X74210476Y-96035904D01*
X74115238Y-96083523D01*
X74020000Y-96178761D01*
X73972380Y-96321619D01*
X73972380Y-96416857D01*
X74020000Y-96559714D01*
X74067619Y-96607333D01*
X73972380Y-96940666D02*
X73972380Y-97607333D01*
X74972380Y-97178761D01*
%TO.C,Y1*%
X85016539Y-87264956D02*
X85016539Y-87741146D01*
X85349872Y-86741146D02*
X85016539Y-87264956D01*
X84683206Y-86741146D01*
X83826063Y-87741146D02*
X84397491Y-87741146D01*
X84111777Y-87741146D02*
X84111777Y-86741146D01*
X84207015Y-86884004D01*
X84302253Y-86979242D01*
X84397491Y-87026861D01*
D11*
%TO.C,R4*%
X88817314Y-109596250D02*
X88363186Y-109596250D01*
X88817314Y-111066250D02*
X88363186Y-111066250D01*
%TO.C,C6*%
X95308750Y-90748752D02*
X95308750Y-90226248D01*
X96778750Y-90748752D02*
X96778750Y-90226248D01*
%TO.C,D3*%
X121399500Y-81837500D02*
X121399500Y-85737500D01*
X123399500Y-81837500D02*
X123399500Y-85737500D01*
X121399500Y-81837500D02*
X123399500Y-81837500D01*
%TO.C,C2*%
X87742349Y-89477514D02*
X87742349Y-90000018D01*
X89212349Y-89477514D02*
X89212349Y-90000018D01*
%TO.C,C3*%
X81211349Y-90031768D02*
X81211349Y-89509264D01*
X79741349Y-90031768D02*
X79741349Y-89509264D01*
%TO.C,D1*%
X102381250Y-82137500D02*
X104381250Y-82137500D01*
X104381250Y-82137500D02*
X104381250Y-86037500D01*
X102381250Y-82137500D02*
X102381250Y-86037500D01*
%TO.C,D6*%
X146069250Y-100887500D02*
X148069250Y-100887500D01*
X146069250Y-100887500D02*
X146069250Y-104787500D01*
X148069250Y-100887500D02*
X148069250Y-104787500D01*
%TO.C,R3*%
X76935000Y-91339936D02*
X76935000Y-91794064D01*
X75465000Y-91339936D02*
X75465000Y-91794064D01*
%TO.C,R1*%
X105510000Y-79822936D02*
X105510000Y-80277064D01*
X104040000Y-79822936D02*
X104040000Y-80277064D01*
%TO.C,D2*%
X107937500Y-100887500D02*
X107937500Y-104787500D01*
X109937500Y-100887500D02*
X109937500Y-104787500D01*
X107937500Y-100887500D02*
X109937500Y-100887500D01*
%TO.C,C4*%
X76192748Y-101119000D02*
X76715252Y-101119000D01*
X76192748Y-102589000D02*
X76715252Y-102589000D01*
%TO.C,F1*%
X94328064Y-76602000D02*
X93123936Y-76602000D01*
X94328064Y-74782000D02*
X93123936Y-74782000D01*
%TO.C,C1*%
X91340000Y-90748752D02*
X91340000Y-90226248D01*
X92810000Y-90748752D02*
X92810000Y-90226248D01*
%TO.C,C5*%
X83883998Y-109596250D02*
X84406502Y-109596250D01*
X83883998Y-111066250D02*
X84406502Y-111066250D01*
D10*
%TO.C,SW1*%
X86166000Y-82356000D02*
X86166000Y-77156000D01*
X86166000Y-77156000D02*
X80966000Y-77156000D01*
X80966000Y-77156000D02*
X80966000Y-82356000D01*
X80966000Y-82356000D02*
X86166000Y-82356000D01*
X84566000Y-79756000D02*
G75*
G03*
X84566000Y-79756000I-1000000J0D01*
G01*
D11*
%TO.C,D4*%
X127019250Y-100887500D02*
X127019250Y-104787500D01*
X127019250Y-100887500D02*
X129019250Y-100887500D01*
X129019250Y-100887500D02*
X129019250Y-104787500D01*
D10*
%TO.C,USB1*%
X100925000Y-71437500D02*
X100925000Y-76887500D01*
X100925000Y-76887500D02*
X108625000Y-76887500D01*
X108625000Y-71437500D02*
X108625000Y-76887500D01*
D11*
%TO.C,D5*%
X142481250Y-81837500D02*
X142481250Y-85737500D01*
X140481250Y-81837500D02*
X142481250Y-81837500D01*
X140481250Y-81837500D02*
X140481250Y-85737500D01*
D10*
%TO.C,U1*%
X81343750Y-94837500D02*
X82018750Y-94837500D01*
X91693750Y-94837500D02*
X91018750Y-94837500D01*
X81343750Y-105187500D02*
X81343750Y-104612500D01*
X81343750Y-105187500D02*
X82018750Y-105187500D01*
X81343750Y-104612500D02*
X80068750Y-104612500D01*
X91693750Y-105187500D02*
X91018750Y-105187500D01*
X81343750Y-94837500D02*
X81343750Y-95512500D01*
X91693750Y-94837500D02*
X91693750Y-95512500D01*
X91693750Y-105187500D02*
X91693750Y-104512500D01*
D11*
%TO.C,R2*%
X107923000Y-79822936D02*
X107923000Y-80277064D01*
X106453000Y-79822936D02*
X106453000Y-80277064D01*
%TO.C,C7*%
X76935000Y-96512748D02*
X76935000Y-97035252D01*
X75465000Y-96512748D02*
X75465000Y-97035252D01*
%TO.C,Y1*%
X86540349Y-88088766D02*
X86540349Y-91388766D01*
X86540349Y-91388766D02*
X82540349Y-91388766D01*
%TD*%
M02*
